# xmcd
#
# Track frame offsets: 
#        183
#        22863
#        42883
#        60878
#        80533
#        93468
#        115415
#        131030
#        151908
#        169635
#        186308
#        205353
#
# Disc length: 3114 seconds
#
# Revision: 4
# Processed by: cddbd v1.5.2PL0 Copyright (c) Steve Scherf et al.
# Submitted via: ExactAudioCopy v0.99pb5
#
DISCID=960c280c
DTITLE=Frumpy - News
DYEAR=1991
DGENRE=Rock
TTITLE0=When The Night Comes
TTITLE1=Get Together
TTITLE2=Everyday Song
TTITLE3=Nothing But Love
TTITLE4=Like Driving
TTITLE5=Hold On
TTITLE6=Loverman
TTITLE7=Right On Time
TTITLE8=Yes, I Would
TTITLE9=Love Is Gold
TTITLE10=Dreams Come True
TTITLE11=Can't Stop Myself
EXTD=
EXTT0=
EXTT1=
EXTT2=
EXTT3=
EXTT4=
EXTT5=
EXTT6=
EXTT7=
EXTT8=
EXTT9=
EXTT10=
EXTT11=
PLAYORDER=
